PathFileType	4	(X/Y/Z)	A:\Common\BMMB\PROJECTS\STRATO\DataSTRATO\DataSTRATO\0021~016 ID\0021~aa~ID 016\W8_STRATO_ID_16.trc
DataRate	CameraRate	NumFrames	NumMarkers	Units	OrigDataRate	OrigDataStartFrame	OrigNumFrames
250.00	250.00	12	18	mm	250.00	82	2481
Frame#	Time	r.should			l.should			c7			r.asis			l.asis			sacrum			r.bar1			l.bar1			r.knee1			l.knee1			r.bar2			r.mall			l.bar2			l.mall			r.met			r.heel			l.heel			l.met			
		X1	Y1	Z1	X2	Y2	Z2	X3	Y3	Z3	X4	Y4	Z4	X5	Y5	Z5	X6	Y6	Z6	X7	Y7	Z7	X8	Y8	Z8	X9	Y9	Z9	X10	Y10	Z10	X11	Y11	Z11	X12	Y12	Z12	X13	Y13	Z13	X14	Y14	Z14	X15	Y15	Z15	X16	Y16	Z16	X17	Y17	Z17	X18	Y18	Z18	

1245	4.980000	196.008950	1340.951204	1536.726236	-100.763299	1325.825453	1522.272348	47.690053	1397.831440	1607.817173	211.028762	837.733686	1425.978541	-46.061561	884.111881	1442.134142	81.857249	951.222777	1664.836287	280.461282	795.327961	1513.122320	-119.712368	798.694074	1520.681500	223.539948	473.414421	1391.816378	-60.907893	461.451232	1511.205792	211.180121	421.590000	1386.293769	186.746344	147.374749	1596.778989	-61.900362	417.277277	1517.389774	-28.849266	54.570302	1585.873008	161.560789	53.767115	1484.756947	132.725507	142.868951	1658.696651	15.621547	34.358934	1648.161292	-3.607600	38.001250	1447.875738	
1246	4.984000	196.226060	1340.857148	1532.776117	-100.519329	1326.048970	1518.058062	47.873445	1397.868395	1603.722811	210.713821	837.730706	1421.185136	-46.135664	884.080529	1438.507557	82.070656	951.279759	1660.977602	280.570984	795.766592	1509.306431	-119.661361	798.660994	1516.745806	223.696530	474.453777	1385.418534	-60.714878	461.244464	1509.660125	211.302593	422.656387	1379.261851	186.773673	144.315630	1584.495783	-61.846312	417.130470	1516.225100	-28.780650	54.598898	1585.804820	162.706420	53.230219	1470.606446	132.481143	138.332784	1646.148562	15.676923	34.448981	1648.157001	-3.598149	38.012691	1447.834492	
1247	4.988000	196.430624	1340.731144	1528.829336	-100.279473	1326.241016	1513.835311	48.068035	1397.913337	1599.631548	210.404132	837.736964	1416.389227	-46.232820	884.015381	1434.844851	82.289994	951.313436	1657.105684	280.799687	795.492828	1504.785299	-119.540624	798.560381	1512.638807	223.886982	475.499004	1379.182220	-60.574830	461.082637	1508.202553	211.459905	423.684150	1372.327805	186.855525	141.229942	1572.126150	-61.746988	416.913241	1514.930844	-28.720088	54.630663	1585.746884	164.052024	52.819468	1456.570148	132.274836	133.800119	1633.463621	15.738275	34.532752	1648.151398	-3.678965	38.231831	1447.941542	
1248	4.992000	196.672559	1340.599656	1524.906158	-100.049205	1326.409817	1509.649277	48.269711	1397.919178	1595.549464	210.099928	837.752521	1411.591291	-46.310470	883.918345	1431.155205	82.498647	951.304197	1653.223395	280.816227	795.704484	1500.835180	-119.489774	798.497319	1508.701563	224.040717	476.520896	1373.065948	-60.462944	460.860670	1506.628036	211.610228	424.634397	1365.444779	186.982989	138.143569	1559.641242	-61.638534	416.682273	1513.647079	-28.642572	54.679420	1585.678101	165.442631	52.348364	1442.430854	132.110760	129.262373	1620.652914	15.803296	34.620002	1648.131728	-3.902098	38.735773	1448.216200	
1249	4.996000	196.900323	1340.436220	1520.950675	-99.778600	1326.558352	1505.422831	48.500683	1397.901297	1591.448545	209.801442	837.777495	1406.791568	-46.384305	883.786023	1427.475691	82.708716	951.254845	1649.347305	280.852854	796.065509	1497.289419	-119.440623	798.387170	1504.773617	224.208951	477.495283	1367.044806	-60.316429	460.606426	1504.978895	211.814433	425.594866	1358.699560	187.183082	135.076895	1547.055721	-61.485343	416.435510	1512.356281	-28.542211	54.718073	1585.607767	166.939035	51.878136	1428.193092	132.011086	124.730259	1607.684374	15.857184	34.711573	1648.109674	-3.846812	38.665287	1448.171139	
1250	5.000000	197.157785	1340.235949	1516.981602	-99.521518	1326.685667	1501.244187	48.746176	1397.853017	1587.361336	209.508907	837.811887	1401.990056	-46.503857	883.633018	1423.815727	82.904197	951.159418	1645.464182	281.029314	795.678556	1492.903948	-119.306661	798.265040	1500.843167	224.386513	478.431523	1361.138344	-60.424790	460.579634	1503.721833	212.008893	426.530182	1352.027655	187.459081	132.045478	1534.428477	-61.319716	416.206032	1511.075497	-28.468652	54.763049	1585.561275	168.288961	51.321466	1413.673401	132.000715	120.239794	1594.586611	15.904509	34.808464	1648.084164	-3.495528	38.089901	1447.555542	
1251	5.004000	197.436228	1340.046287	1513.013959	-99.206544	1326.786518	1497.030497	49.002416	1397.792339	1583.300114	209.222556	837.855816	1397.187233	-46.629023	883.441210	1420.162916	83.086513	951.018870	1641.554236	281.090409	795.612514	1490.321636	-119.269095	798.167467	1497.106194	224.553719	479.327887	1355.348349	-60.828142	460.745275	1502.832174	212.226182	427.433670	1345.458031	187.806532	129.038095	1521.708965	-61.193205	416.009396	1509.812117	-28.398206	54.784123	1585.465550	169.613868	50.707936	1399.096131	132.075503	115.799218	1581.413150	15.968442	34.903873	1648.060560	-3.218603	37.707124	1446.761489	
1252	5.008000	197.746754	1339.836001	1509.060860	-98.904371	1326.859117	1492.815256	49.269605	1397.693157	1579.228878	208.942623	837.909341	1392.383218	-46.739127	883.229852	1416.449547	83.248124	950.860262	1637.633085	281.552393	795.956075	1485.231519	-119.257823	798.065186	1493.434310	224.724084	480.206549	1349.693894	-60.581841	460.418701	1501.093030	212.474525	428.285539	1338.976145	188.216090	126.057968	1508.916855	-61.111595	415.849715	1508.574605	-28.330475	54.852542	1585.440993	170.654058	50.442789	1389.531255	132.240623	111.402705	1568.113565	16.040826	35.000950	1648.028374	-3.032219	37.539985	1446.351290	
1253	5.012000	198.057711	1339.559078	1505.091906	-98.564819	1326.895714	1488.559604	49.563758	1397.581458	1575.157285	208.669341	837.972462	1387.578130	-46.861745	883.012652	1412.736654	83.394676	950.683475	1633.729339	282.222390	796.418190	1478.624701	-119.068176	797.860444	1489.676714	224.825472	481.076330	1343.918920	-59.928123	459.811062	1498.875856	212.721720	429.094791	1332.614899	188.709170	123.143166	1496.080279	-60.989432	415.638149	1507.257104	-28.248332	54.910034	1585.410357	172.606463	49.977999	1370.872021	132.499486	107.086703	1554.704428	16.096693	35.117786	1648.016930	-2.876197	37.519261	1446.068287	
1254	5.016000	198.361322	1339.289546	1501.134038	-98.236777	1326.915622	1484.352827	49.862377	1397.459269	1571.077466	208.402943	838.045299	1382.772326	-46.966318	882.770240	1409.027219	83.541907	950.482905	1629.793167	282.740289	796.767235	1472.931266	-118.915714	797.624588	1486.034870	224.838153	481.926978	1338.081360	-59.630230	459.417373	1497.004151	213.024601	429.858923	1326.361179	189.281717	120.276302	1483.115435	-60.842749	415.404141	1505.862117	-28.158998	54.946251	1585.346580	174.698174	49.538989	1350.924611	132.853717	102.859721	1541.211128	16.165836	35.237197	1647.989273	-3.026344	37.507795	1446.260691	
1255	5.020000	198.675588	1339.006662	1497.134566	-97.935818	1326.920629	1480.203986	50.192870	1397.295237	1566.998839	208.143661	838.127911	1377.965927	-47.035500	882.474601	1405.236483	83.677158	950.262666	1625.873089	283.081574	796.983302	1468.348622	-118.792772	797.403574	1482.550383	225.016803	482.668668	1332.677603	-59.690814	459.285587	1495.540500	213.339671	430.590063	1320.227027	189.953744	117.469579	1470.121980	-60.683452	415.155768	1504.382491	-28.070876	54.989733	1585.246563	175.958112	49.461391	1340.123296	133.301452	98.707780	1527.643681	16.231945	35.349187	1647.962213	-2.974431	37.487537	1446.158051	
1256	5.024000	199.022770	1338.670850	1493.121862	-97.534195	1326.870680	1475.951195	50.531082	1397.112250	1562.908173	207.891730	838.220417	1373.159289	-47.110882	882.195115	1401.426673	83.808497	950.011849	1621.937275	283.305630	797.099531	1464.516163	-118.562527	797.065020	1478.968143	225.215286	483.316451	1327.381134	-59.844807	459.218562	1494.202852	213.690400	431.264400	1314.183593	190.702140	114.740930	1457.075238	-60.564294	414.905310	1502.874374	-28.009485	55.023685	1585.164666	177.122876	49.516086	1331.447244	133.912176	94.746187	1514.137983	16.305869	35.460904	1647.933483	-2.772343	37.526861	1445.828795	
